<svg width="20px" height="20px" viewBox="0 0 24 24" fill="none" xmlns="http://www.w3.org/2000/svg">

<g id="SVGRepo_bgCarrier" stroke-width="0"/>

<g id="SVGRepo_tracerCarrier" stroke-linecap="round" stroke-linejoin="round"/>

<g id="SVGRepo_iconCarrier"> 
  <path d="M18.4998 3.91421C18.4998 3.29287 18.207 2.70711 17.7929 2.29289C17.3787 1.87868 16.7929 1.58579 16.1715 1.58579H7.82843C7.20709 1.58579 6.62132 1.87868 6.20711 2.29289C5.79289 2.70711 5.5 3.29287 5.5 3.91421V5.5H4.5C3.94772 5.5 3.5 5.94772 3.5 6.5V16.5C3.5 17.0523 3.94772 17.5 4.5 17.5H5.5V20C5.5 20.2761 5.72386 20.5 6 20.5H18C18.2761 20.5 18.5 20.2761 18.5 20V17.5H19.5C20.0523 17.5 20.5 17.0523 20.5 16.5V6.5C20.5 5.94772 20.0523 5.5 19.5 5.5H18.4998V3.91421ZM16.1715 3.08579H7.82843C7.63326 3.08579 7.45492 3.16414 7.32902 3.29003C7.20313 3.41593 7.12478 3.59427 7.12478 3.78944V5.5H16.8755V3.78944C16.8755 3.59427 16.7971 3.41593 16.6712 3.29003C16.5453 3.16414 16.367 3.08579 16.1715 3.08579ZM19 7H5V16H19V7ZM17 9H7V15H17V9ZM15 11H9V13H15V11Z" fill="none" stroke="#ffffff" stroke-width="1.5" stroke-linecap="round" stroke-linejoin="round"/> 
</g>

</svg>
